<svg xmlns="http://www.w3.org/2000/svg" xmlns:xlink="http://www.w3.org/1999/xlink" contentStyleType="text/css" data-diagram-type="CLASS" height="475px" preserveAspectRatio="none" style="width:1816px;height:475px;background:#FFFFFF;" version="1.1" viewBox="0 0 1816 475" width="1816px" zoomAndPan="magnify"><defs/><g><!--class PizzaStore--><g class="entity" data-entity="PizzaStore" data-source-line="1" data-uid="ent0002" id="entity_PizzaStore"><rect fill="#F1F1F1" height="80.5938" rx="2.5" ry="2.5" style="stroke:#181818;stroke-width:0.5;" width="244.2783" x="681.5" y="31"/><ellipse cx="762.9297" cy="47" fill="#A9DCDF" rx="11" ry="11" style="stroke:#181818;stroke-width:1;"/><path d="M763.0391,42.3438 L761.8828,47.4219 L764.2109,47.4219 L763.0391,42.3438 Z M761.5547,40.1094 L764.5391,40.1094 L767.8984,52.5 L765.4453,52.5 L764.6797,49.4375 L761.3984,49.4375 L760.6484,52.5 L758.2109,52.5 L761.5547,40.1094 Z " fill="#000000"/><text fill="#000000" font-family="sans-serif" font-size="14" font-style="italic" lengthAdjust="spacing" textLength="72.9189" x="783.4297" y="51.8467">PizzaStore</text><line style="stroke:#181818;stroke-width:0.5;" x1="682.5" x2="924.7783" y1="63" y2="63"/><line style="stroke:#181818;stroke-width:0.5;" x1="682.5" x2="924.7783" y1="71" y2="71"/><ellipse cx="692.5" cy="84.6484" fill="#84BE84" rx="3" ry="3" style="stroke:#038048;stroke-width:1;"/><text fill="#000000" font-family="sans-serif" font-size="14" lengthAdjust="spacing" textLength="211.1074" x="701.5" y="87.9951">orderPizza(type: String): Pizza</text><polygon fill="#FFFF44" points="692.5,95.9453,696.5,99.9453,692.5,103.9453,688.5,99.9453" style="stroke:#B38D22;stroke-width:1;"/><text fill="#000000" font-family="sans-serif" font-size="14" font-style="italic" lengthAdjust="spacing" textLength="218.2783" x="701.5" y="104.292">createPizza(type: String): Pizza</text></g><!--class NYPizzaStore--><g class="entity" data-entity="NYPizzaStore" data-source-line="6" data-uid="ent0003" id="entity_NYPizzaStore"><rect fill="#F1F1F1" height="64.2969" rx="2.5" ry="2.5" style="stroke:#181818;stroke-width:0.5;" width="244.2783" x="402.5" y="254"/><ellipse cx="474.4175" cy="270" fill="#ADD1B2" rx="11" ry="11" style="stroke:#181818;stroke-width:1;"/><path d="M477.3862,275.6406 Q476.8081,275.9375 476.1675,276.0781 Q475.5269,276.2344 474.8237,276.2344 Q472.3237,276.2344 470.9956,274.5938 Q469.6831,272.9375 469.6831,269.8125 Q469.6831,266.6875 470.9956,265.0313 Q472.3237,263.375 474.8237,263.375 Q475.5269,263.375 476.1675,263.5313 Q476.8237,263.6875 477.3862,263.9844 L477.3862,266.7031 Q476.7612,266.125 476.1675,265.8594 Q475.5737,265.5781 474.9487,265.5781 Q473.605,265.5781 472.9175,266.6563 Q472.23,267.7188 472.23,269.8125 Q472.23,271.9063 472.9175,272.9844 Q473.605,274.0469 474.9487,274.0469 Q475.5737,274.0469 476.1675,273.7813 Q476.7612,273.5 477.3862,272.9219 L477.3862,275.6406 Z " fill="#000000"/><text fill="#000000" font-family="sans-serif" font-size="14" lengthAdjust="spacing" textLength="91.9434" x="494.9175" y="274.8467">NYPizzaStore</text><line style="stroke:#181818;stroke-width:0.5;" x1="403.5" x2="645.7783" y1="286" y2="286"/><line style="stroke:#181818;stroke-width:0.5;" x1="403.5" x2="645.7783" y1="294" y2="294"/><ellipse cx="413.5" cy="307.6484" fill="#84BE84" rx="3" ry="3" style="stroke:#038048;stroke-width:1;"/><text fill="#000000" font-family="sans-serif" font-size="14" lengthAdjust="spacing" textLength="218.2783" x="422.5" y="310.9951">createPizza(type: String): Pizza</text></g><!--class ChicagoPizzaStore--><g class="entity" data-entity="ChicagoPizzaStore" data-source-line="10" data-uid="ent0004" id="entity_ChicagoPizzaStore"><rect fill="#F1F1F1" height="64.2969" rx="2.5" ry="2.5" style="stroke:#181818;stroke-width:0.5;" width="244.2783" x="681.5" y="254"/><ellipse cx="734.7964" cy="270" fill="#ADD1B2" rx="11" ry="11" style="stroke:#181818;stroke-width:1;"/><path d="M737.7651,275.6406 Q737.187,275.9375 736.5464,276.0781 Q735.9058,276.2344 735.2026,276.2344 Q732.7026,276.2344 731.3745,274.5938 Q730.062,272.9375 730.062,269.8125 Q730.062,266.6875 731.3745,265.0313 Q732.7026,263.375 735.2026,263.375 Q735.9058,263.375 736.5464,263.5313 Q737.2026,263.6875 737.7651,263.9844 L737.7651,266.7031 Q737.1401,266.125 736.5464,265.8594 Q735.9526,265.5781 735.3276,265.5781 Q733.9839,265.5781 733.2964,266.6563 Q732.6089,267.7188 732.6089,269.8125 Q732.6089,271.9063 733.2964,272.9844 Q733.9839,274.0469 735.3276,274.0469 Q735.9526,274.0469 736.5464,273.7813 Q737.1401,273.5 737.7651,272.9219 L737.7651,275.6406 Z " fill="#000000"/><text fill="#000000" font-family="sans-serif" font-size="14" lengthAdjust="spacing" textLength="129.1855" x="755.2964" y="274.8467">ChicagoPizzaStore</text><line style="stroke:#181818;stroke-width:0.5;" x1="682.5" x2="924.7783" y1="286" y2="286"/><line style="stroke:#181818;stroke-width:0.5;" x1="682.5" x2="924.7783" y1="294" y2="294"/><ellipse cx="692.5" cy="307.6484" fill="#84BE84" rx="3" ry="3" style="stroke:#038048;stroke-width:1;"/><text fill="#000000" font-family="sans-serif" font-size="14" lengthAdjust="spacing" textLength="218.2783" x="701.5" y="310.9951">createPizza(type: String): Pizza</text></g><!--class Pizza--><g class="entity" data-entity="Pizza" data-source-line="14" data-uid="ent0005" id="entity_Pizza"><rect fill="#F1F1F1" height="129.4844" rx="2.5" ry="2.5" style="stroke:#181818;stroke-width:0.5;" width="130.8086" x="1368" y="7"/><ellipse cx="1411.4401" cy="23" fill="#A9DCDF" rx="11" ry="11" style="stroke:#181818;stroke-width:1;"/><path d="M1411.5495,18.3438 L1410.3932,23.4219 L1412.7213,23.4219 L1411.5495,18.3438 Z M1410.0651,16.1094 L1413.0495,16.1094 L1416.4088,28.5 L1413.9557,28.5 L1413.1901,25.4375 L1409.9088,25.4375 L1409.1588,28.5 L1406.7213,28.5 L1410.0651,16.1094 Z " fill="#000000"/><text fill="#000000" font-family="sans-serif" font-size="14" font-style="italic" lengthAdjust="spacing" textLength="35.6084" x="1431.7601" y="27.8467">Pizza</text><line style="stroke:#181818;stroke-width:0.5;" x1="1369" x2="1497.8086" y1="39" y2="39"/><rect fill="none" height="6" style="stroke:#C82930;stroke-width:1;" width="6" x="1376" y="49.6484"/><text fill="#000000" font-family="sans-serif" font-size="14" lengthAdjust="spacing" textLength="90.6514" x="1388" y="55.9951">name: String</text><line style="stroke:#181818;stroke-width:0.5;" x1="1369" x2="1497.8086" y1="63.2969" y2="63.2969"/><ellipse cx="1379" cy="76.9453" fill="#84BE84" rx="3" ry="3" style="stroke:#038048;stroke-width:1;"/><text fill="#000000" font-family="sans-serif" font-size="14" lengthAdjust="spacing" textLength="104.8086" x="1388" y="80.292">prepare(): void</text><ellipse cx="1379" cy="93.2422" fill="#84BE84" rx="3" ry="3" style="stroke:#038048;stroke-width:1;"/><text fill="#000000" font-family="sans-serif" font-size="14" lengthAdjust="spacing" textLength="83.9043" x="1388" y="96.5889">bake(): void</text><ellipse cx="1379" cy="109.5391" fill="#84BE84" rx="3" ry="3" style="stroke:#038048;stroke-width:1;"/><text fill="#000000" font-family="sans-serif" font-size="14" lengthAdjust="spacing" textLength="71.7773" x="1388" y="112.8857">cut(): void</text><ellipse cx="1379" cy="125.8359" fill="#84BE84" rx="3" ry="3" style="stroke:#038048;stroke-width:1;"/><text fill="#000000" font-family="sans-serif" font-size="14" lengthAdjust="spacing" textLength="75.4551" x="1388" y="129.1826">box(): void</text></g><!--class CheesePizza--><g class="entity" data-entity="CheesePizza" data-source-line="22" data-uid="ent0006" id="entity_CheesePizza"><rect fill="#F1F1F1" height="48" rx="2.5" ry="2.5" style="stroke:#181818;stroke-width:0.5;" width="119.3906" x="1228" y="262"/><ellipse cx="1243" cy="278" fill="#ADD1B2" rx="11" ry="11" style="stroke:#181818;stroke-width:1;"/><path d="M1245.9688,283.6406 Q1245.3906,283.9375 1244.75,284.0781 Q1244.1094,284.2344 1243.4063,284.2344 Q1240.9063,284.2344 1239.5781,282.5938 Q1238.2656,280.9375 1238.2656,277.8125 Q1238.2656,274.6875 1239.5781,273.0313 Q1240.9063,271.375 1243.4063,271.375 Q1244.1094,271.375 1244.75,271.5313 Q1245.4063,271.6875 1245.9688,271.9844 L1245.9688,274.7031 Q1245.3438,274.125 1244.75,273.8594 Q1244.1563,273.5781 1243.5313,273.5781 Q1242.1875,273.5781 1241.5,274.6563 Q1240.8125,275.7188 1240.8125,277.8125 Q1240.8125,279.9063 1241.5,280.9844 Q1242.1875,282.0469 1243.5313,282.0469 Q1244.1563,282.0469 1244.75,281.7813 Q1245.3438,281.5 1245.9688,280.9219 L1245.9688,283.6406 Z " fill="#000000"/><text fill="#000000" font-family="sans-serif" font-size="14" lengthAdjust="spacing" textLength="87.3906" x="1257" y="282.8467">CheesePizza</text><line style="stroke:#181818;stroke-width:0.5;" x1="1229" x2="1346.3906" y1="294" y2="294"/><line style="stroke:#181818;stroke-width:0.5;" x1="1229" x2="1346.3906" y1="302" y2="302"/></g><!--class ClamPizza--><g class="entity" data-entity="ClamPizza" data-source-line="25" data-uid="ent0007" id="entity_ClamPizza"><rect fill="#F1F1F1" height="48" rx="2.5" ry="2.5" style="stroke:#181818;stroke-width:0.5;" width="103.4902" x="1382" y="262"/><ellipse cx="1397" cy="278" fill="#ADD1B2" rx="11" ry="11" style="stroke:#181818;stroke-width:1;"/><path d="M1399.9688,283.6406 Q1399.3906,283.9375 1398.75,284.0781 Q1398.1094,284.2344 1397.4063,284.2344 Q1394.9063,284.2344 1393.5781,282.5938 Q1392.2656,280.9375 1392.2656,277.8125 Q1392.2656,274.6875 1393.5781,273.0313 Q1394.9063,271.375 1397.4063,271.375 Q1398.1094,271.375 1398.75,271.5313 Q1399.4063,271.6875 1399.9688,271.9844 L1399.9688,274.7031 Q1399.3438,274.125 1398.75,273.8594 Q1398.1563,273.5781 1397.5313,273.5781 Q1396.1875,273.5781 1395.5,274.6563 Q1394.8125,275.7188 1394.8125,277.8125 Q1394.8125,279.9063 1395.5,280.9844 Q1396.1875,282.0469 1397.5313,282.0469 Q1398.1563,282.0469 1398.75,281.7813 Q1399.3438,281.5 1399.9688,280.9219 L1399.9688,283.6406 Z " fill="#000000"/><text fill="#000000" font-family="sans-serif" font-size="14" lengthAdjust="spacing" textLength="71.4902" x="1411" y="282.8467">ClamPizza</text><line style="stroke:#181818;stroke-width:0.5;" x1="1383" x2="1484.4902" y1="294" y2="294"/><line style="stroke:#181818;stroke-width:0.5;" x1="1383" x2="1484.4902" y1="302" y2="302"/></g><!--class VeggiePizza--><g class="entity" data-entity="VeggiePizza" data-source-line="28" data-uid="ent0008" id="entity_VeggiePizza"><rect fill="#F1F1F1" height="48" rx="2.5" ry="2.5" style="stroke:#181818;stroke-width:0.5;" width="116.0752" x="1520.5" y="262"/><ellipse cx="1535.5" cy="278" fill="#ADD1B2" rx="11" ry="11" style="stroke:#181818;stroke-width:1;"/><path d="M1538.4688,283.6406 Q1537.8906,283.9375 1537.25,284.0781 Q1536.6094,284.2344 1535.9063,284.2344 Q1533.4063,284.2344 1532.0781,282.5938 Q1530.7656,280.9375 1530.7656,277.8125 Q1530.7656,274.6875 1532.0781,273.0313 Q1533.4063,271.375 1535.9063,271.375 Q1536.6094,271.375 1537.25,271.5313 Q1537.9063,271.6875 1538.4688,271.9844 L1538.4688,274.7031 Q1537.8438,274.125 1537.25,273.8594 Q1536.6563,273.5781 1536.0313,273.5781 Q1534.6875,273.5781 1534,274.6563 Q1533.3125,275.7188 1533.3125,277.8125 Q1533.3125,279.9063 1534,280.9844 Q1534.6875,282.0469 1536.0313,282.0469 Q1536.6563,282.0469 1537.25,281.7813 Q1537.8438,281.5 1538.4688,280.9219 L1538.4688,283.6406 Z " fill="#000000"/><text fill="#000000" font-family="sans-serif" font-size="14" lengthAdjust="spacing" textLength="84.0752" x="1549.5" y="282.8467">VeggiePizza</text><line style="stroke:#181818;stroke-width:0.5;" x1="1521.5" x2="1635.5752" y1="294" y2="294"/><line style="stroke:#181818;stroke-width:0.5;" x1="1521.5" x2="1635.5752" y1="302" y2="302"/></g><!--class PepperoniPizza--><g class="entity" data-entity="PepperoniPizza" data-source-line="31" data-uid="ent0009" id="entity_PepperoniPizza"><rect fill="#F1F1F1" height="48" rx="2.5" ry="2.5" style="stroke:#181818;stroke-width:0.5;" width="138.1348" x="1671.5" y="262"/><ellipse cx="1686.5" cy="278" fill="#ADD1B2" rx="11" ry="11" style="stroke:#181818;stroke-width:1;"/><path d="M1689.4688,283.6406 Q1688.8906,283.9375 1688.25,284.0781 Q1687.6094,284.2344 1686.9063,284.2344 Q1684.4063,284.2344 1683.0781,282.5938 Q1681.7656,280.9375 1681.7656,277.8125 Q1681.7656,274.6875 1683.0781,273.0313 Q1684.4063,271.375 1686.9063,271.375 Q1687.6094,271.375 1688.25,271.5313 Q1688.9063,271.6875 1689.4688,271.9844 L1689.4688,274.7031 Q1688.8438,274.125 1688.25,273.8594 Q1687.6563,273.5781 1687.0313,273.5781 Q1685.6875,273.5781 1685,274.6563 Q1684.3125,275.7188 1684.3125,277.8125 Q1684.3125,279.9063 1685,280.9844 Q1685.6875,282.0469 1687.0313,282.0469 Q1687.6563,282.0469 1688.25,281.7813 Q1688.8438,281.5 1689.4688,280.9219 L1689.4688,283.6406 Z " fill="#000000"/><text fill="#000000" font-family="sans-serif" font-size="14" lengthAdjust="spacing" textLength="106.1348" x="1700.5" y="282.8467">PepperoniPizza</text><line style="stroke:#181818;stroke-width:0.5;" x1="1672.5" x2="1808.6348" y1="294" y2="294"/><line style="stroke:#181818;stroke-width:0.5;" x1="1672.5" x2="1808.6348" y1="302" y2="302"/></g><!--class PizzaIngredientFactory--><g class="entity" data-entity="PizzaIngredientFactory" data-source-line="34" data-uid="ent0010" id="entity_PizzaIngredientFactory"><rect fill="#F1F1F1" height="145.7813" rx="2.5" ry="2.5" style="stroke:#181818;stroke-width:0.5;" width="231.8916" x="960.5" y="213"/><ellipse cx="993.4319" cy="229" fill="#B4A7E5" rx="11" ry="11" style="stroke:#181818;stroke-width:1;"/><path d="M989.3538,224.7656 L989.3538,222.6094 L996.7444,222.6094 L996.7444,224.7656 L994.2756,224.7656 L994.2756,232.8438 L996.7444,232.8438 L996.7444,235 L989.3538,235 L989.3538,232.8438 L991.8225,232.8438 L991.8225,224.7656 L989.3538,224.7656 Z " fill="#000000"/><text fill="#000000" font-family="sans-serif" font-size="14" font-style="italic" lengthAdjust="spacing" textLength="160.043" x="1011.4167" y="233.8467">PizzaIngredientFactory</text><line style="stroke:#181818;stroke-width:0.5;" x1="961.5" x2="1191.3916" y1="245" y2="245"/><line style="stroke:#181818;stroke-width:0.5;" x1="961.5" x2="1191.3916" y1="253" y2="253"/><ellipse cx="971.5" cy="266.6484" fill="#84BE84" rx="3" ry="3" style="stroke:#038048;stroke-width:1;"/><text fill="#000000" font-family="sans-serif" font-size="14" lengthAdjust="spacing" textLength="156.7959" x="980.5" y="269.9951">createDough(): Dough</text><ellipse cx="971.5" cy="282.9453" fill="#84BE84" rx="3" ry="3" style="stroke:#038048;stroke-width:1;"/><text fill="#000000" font-family="sans-serif" font-size="14" lengthAdjust="spacing" textLength="150.1377" x="980.5" y="286.292">createSauce(): Sauce</text><ellipse cx="971.5" cy="299.2422" fill="#84BE84" rx="3" ry="3" style="stroke:#038048;stroke-width:1;"/><text fill="#000000" font-family="sans-serif" font-size="14" lengthAdjust="spacing" textLength="168.4033" x="980.5" y="302.5889">createCheese(): Cheese</text><ellipse cx="971.5" cy="315.5391" fill="#84BE84" rx="3" ry="3" style="stroke:#038048;stroke-width:1;"/><text fill="#000000" font-family="sans-serif" font-size="14" lengthAdjust="spacing" textLength="187.2842" x="980.5" y="318.8857">createVeggies(): Veggies[]</text><ellipse cx="971.5" cy="331.8359" fill="#84BE84" rx="3" ry="3" style="stroke:#038048;stroke-width:1;"/><text fill="#000000" font-family="sans-serif" font-size="14" lengthAdjust="spacing" textLength="205.8916" x="980.5" y="335.1826">createPepperoni(): Pepperoni</text><ellipse cx="971.5" cy="348.1328" fill="#84BE84" rx="3" ry="3" style="stroke:#038048;stroke-width:1;"/><text fill="#000000" font-family="sans-serif" font-size="14" lengthAdjust="spacing" textLength="143.8965" x="980.5" y="351.4795">createClam(): Clams</text></g><!--class NYPizzaIngredientFactory--><g class="entity" data-entity="NYPizzaIngredientFactory" data-source-line="43" data-uid="ent0011" id="entity_NYPizzaIngredientFactory"><rect fill="#F1F1F1" height="48" rx="2.5" ry="2.5" style="stroke:#181818;stroke-width:0.5;" width="211.0674" x="838" y="420"/><ellipse cx="853" cy="436" fill="#ADD1B2" rx="11" ry="11" style="stroke:#181818;stroke-width:1;"/><path d="M855.9688,441.6406 Q855.3906,441.9375 854.75,442.0781 Q854.1094,442.2344 853.4063,442.2344 Q850.9063,442.2344 849.5781,440.5938 Q848.2656,438.9375 848.2656,435.8125 Q848.2656,432.6875 849.5781,431.0313 Q850.9063,429.375 853.4063,429.375 Q854.1094,429.375 854.75,429.5313 Q855.4063,429.6875 855.9688,429.9844 L855.9688,432.7031 Q855.3438,432.125 854.75,431.8594 Q854.1563,431.5781 853.5313,431.5781 Q852.1875,431.5781 851.5,432.6563 Q850.8125,433.7188 850.8125,435.8125 Q850.8125,437.9063 851.5,438.9844 Q852.1875,440.0469 853.5313,440.0469 Q854.1563,440.0469 854.75,439.7813 Q855.3438,439.5 855.9688,438.9219 L855.9688,441.6406 Z " fill="#000000"/><text fill="#000000" font-family="sans-serif" font-size="14" lengthAdjust="spacing" textLength="179.0674" x="867" y="440.8467">NYPizzaIngredientFactory</text><line style="stroke:#181818;stroke-width:0.5;" x1="839" x2="1048.0674" y1="452" y2="452"/><line style="stroke:#181818;stroke-width:0.5;" x1="839" x2="1048.0674" y1="460" y2="460"/></g><!--class ChicagoPizzaIngredientFactory--><g class="entity" data-entity="ChicagoPizzaIngredientFactory" data-source-line="46" data-uid="ent0012" id="entity_ChicagoPizzaIngredientFactory"><rect fill="#F1F1F1" height="48" rx="2.5" ry="2.5" style="stroke:#181818;stroke-width:0.5;" width="248.3096" x="1084.5" y="420"/><ellipse cx="1099.5" cy="436" fill="#ADD1B2" rx="11" ry="11" style="stroke:#181818;stroke-width:1;"/><path d="M1102.4688,441.6406 Q1101.8906,441.9375 1101.25,442.0781 Q1100.6094,442.2344 1099.9063,442.2344 Q1097.4063,442.2344 1096.0781,440.5938 Q1094.7656,438.9375 1094.7656,435.8125 Q1094.7656,432.6875 1096.0781,431.0313 Q1097.4063,429.375 1099.9063,429.375 Q1100.6094,429.375 1101.25,429.5313 Q1101.9063,429.6875 1102.4688,429.9844 L1102.4688,432.7031 Q1101.8438,432.125 1101.25,431.8594 Q1100.6563,431.5781 1100.0313,431.5781 Q1098.6875,431.5781 1098,432.6563 Q1097.3125,433.7188 1097.3125,435.8125 Q1097.3125,437.9063 1098,438.9844 Q1098.6875,440.0469 1100.0313,440.0469 Q1100.6563,440.0469 1101.25,439.7813 Q1101.8438,439.5 1102.4688,438.9219 L1102.4688,441.6406 Z " fill="#000000"/><text fill="#000000" font-family="sans-serif" font-size="14" lengthAdjust="spacing" textLength="216.3096" x="1113.5" y="440.8467">ChicagoPizzaIngredientFactory</text><line style="stroke:#181818;stroke-width:0.5;" x1="1085.5" x2="1331.8096" y1="452" y2="452"/><line style="stroke:#181818;stroke-width:0.5;" x1="1085.5" x2="1331.8096" y1="460" y2="460"/></g><!--class Dough--><g class="entity" data-entity="Dough" data-source-line="49" data-uid="ent0013" id="entity_Dough"><rect fill="#F1F1F1" height="48" rx="2.5" ry="2.5" style="stroke:#181818;stroke-width:0.5;" width="77.9785" x="35.5" y="47.5"/><ellipse cx="50.5" cy="63.5" fill="#ADD1B2" rx="11" ry="11" style="stroke:#181818;stroke-width:1;"/><path d="M53.4688,69.1406 Q52.8906,69.4375 52.25,69.5781 Q51.6094,69.7344 50.9063,69.7344 Q48.4063,69.7344 47.0781,68.0938 Q45.7656,66.4375 45.7656,63.3125 Q45.7656,60.1875 47.0781,58.5313 Q48.4063,56.875 50.9063,56.875 Q51.6094,56.875 52.25,57.0313 Q52.9063,57.1875 53.4688,57.4844 L53.4688,60.2031 Q52.8438,59.625 52.25,59.3594 Q51.6563,59.0781 51.0313,59.0781 Q49.6875,59.0781 49,60.1563 Q48.3125,61.2188 48.3125,63.3125 Q48.3125,65.4063 49,66.4844 Q49.6875,67.5469 51.0313,67.5469 Q51.6563,67.5469 52.25,67.2813 Q52.8438,67 53.4688,66.4219 L53.4688,69.1406 Z " fill="#000000"/><text fill="#000000" font-family="sans-serif" font-size="14" lengthAdjust="spacing" textLength="45.9785" x="64.5" y="68.3467">Dough</text><line style="stroke:#181818;stroke-width:0.5;" x1="36.5" x2="112.4785" y1="79.5" y2="79.5"/><line style="stroke:#181818;stroke-width:0.5;" x1="36.5" x2="112.4785" y1="87.5" y2="87.5"/></g><!--class Sauce--><g class="entity" data-entity="Sauce" data-source-line="52" data-uid="ent0014" id="entity_Sauce"><rect fill="#F1F1F1" height="48" rx="2.5" ry="2.5" style="stroke:#181818;stroke-width:0.5;" width="74.6494" x="149" y="47.5"/><ellipse cx="164" cy="63.5" fill="#ADD1B2" rx="11" ry="11" style="stroke:#181818;stroke-width:1;"/><path d="M166.9688,69.1406 Q166.3906,69.4375 165.75,69.5781 Q165.1094,69.7344 164.4063,69.7344 Q161.9063,69.7344 160.5781,68.0938 Q159.2656,66.4375 159.2656,63.3125 Q159.2656,60.1875 160.5781,58.5313 Q161.9063,56.875 164.4063,56.875 Q165.1094,56.875 165.75,57.0313 Q166.4063,57.1875 166.9688,57.4844 L166.9688,60.2031 Q166.3438,59.625 165.75,59.3594 Q165.1563,59.0781 164.5313,59.0781 Q163.1875,59.0781 162.5,60.1563 Q161.8125,61.2188 161.8125,63.3125 Q161.8125,65.4063 162.5,66.4844 Q163.1875,67.5469 164.5313,67.5469 Q165.1563,67.5469 165.75,67.2813 Q166.3438,67 166.9688,66.4219 L166.9688,69.1406 Z " fill="#000000"/><text fill="#000000" font-family="sans-serif" font-size="14" lengthAdjust="spacing" textLength="42.6494" x="178" y="68.3467">Sauce</text><line style="stroke:#181818;stroke-width:0.5;" x1="150" x2="222.6494" y1="79.5" y2="79.5"/><line style="stroke:#181818;stroke-width:0.5;" x1="150" x2="222.6494" y1="87.5" y2="87.5"/></g><!--class Cheese--><g class="entity" data-entity="Cheese" data-source-line="55" data-uid="ent0015" id="entity_Cheese"><rect fill="#F1F1F1" height="48" rx="2.5" ry="2.5" style="stroke:#181818;stroke-width:0.5;" width="83.7822" x="259.5" y="47.5"/><ellipse cx="274.5" cy="63.5" fill="#ADD1B2" rx="11" ry="11" style="stroke:#181818;stroke-width:1;"/><path d="M277.4688,69.1406 Q276.8906,69.4375 276.25,69.5781 Q275.6094,69.7344 274.9063,69.7344 Q272.4063,69.7344 271.0781,68.0938 Q269.7656,66.4375 269.7656,63.3125 Q269.7656,60.1875 271.0781,58.5313 Q272.4063,56.875 274.9063,56.875 Q275.6094,56.875 276.25,57.0313 Q276.9063,57.1875 277.4688,57.4844 L277.4688,60.2031 Q276.8438,59.625 276.25,59.3594 Q275.6563,59.0781 275.0313,59.0781 Q273.6875,59.0781 273,60.1563 Q272.3125,61.2188 272.3125,63.3125 Q272.3125,65.4063 273,66.4844 Q273.6875,67.5469 275.0313,67.5469 Q275.6563,67.5469 276.25,67.2813 Q276.8438,67 277.4688,66.4219 L277.4688,69.1406 Z " fill="#000000"/><text fill="#000000" font-family="sans-serif" font-size="14" lengthAdjust="spacing" textLength="51.7822" x="288.5" y="68.3467">Cheese</text><line style="stroke:#181818;stroke-width:0.5;" x1="260.5" x2="342.2822" y1="79.5" y2="79.5"/><line style="stroke:#181818;stroke-width:0.5;" x1="260.5" x2="342.2822" y1="87.5" y2="87.5"/></g><!--class Veggies--><g class="entity" data-entity="Veggies" data-source-line="58" data-uid="ent0016" id="entity_Veggies"><rect fill="#F1F1F1" height="48" rx="2.5" ry="2.5" style="stroke:#181818;stroke-width:0.5;" width="87.7607" x="30.5" y="262"/><ellipse cx="45.5" cy="278" fill="#ADD1B2" rx="11" ry="11" style="stroke:#181818;stroke-width:1;"/><path d="M48.4688,283.6406 Q47.8906,283.9375 47.25,284.0781 Q46.6094,284.2344 45.9063,284.2344 Q43.4063,284.2344 42.0781,282.5938 Q40.7656,280.9375 40.7656,277.8125 Q40.7656,274.6875 42.0781,273.0313 Q43.4063,271.375 45.9063,271.375 Q46.6094,271.375 47.25,271.5313 Q47.9063,271.6875 48.4688,271.9844 L48.4688,274.7031 Q47.8438,274.125 47.25,273.8594 Q46.6563,273.5781 46.0313,273.5781 Q44.6875,273.5781 44,274.6563 Q43.3125,275.7188 43.3125,277.8125 Q43.3125,279.9063 44,280.9844 Q44.6875,282.0469 46.0313,282.0469 Q46.6563,282.0469 47.25,281.7813 Q47.8438,281.5 48.4688,280.9219 L48.4688,283.6406 Z " fill="#000000"/><text fill="#000000" font-family="sans-serif" font-size="14" lengthAdjust="spacing" textLength="55.7607" x="59.5" y="282.8467">Veggies</text><line style="stroke:#181818;stroke-width:0.5;" x1="31.5" x2="117.2607" y1="294" y2="294"/><line style="stroke:#181818;stroke-width:0.5;" x1="31.5" x2="117.2607" y1="302" y2="302"/></g><!--class Pepperoni--><g class="entity" data-entity="Pepperoni" data-source-line="61" data-uid="ent0017" id="entity_Pepperoni"><rect fill="#F1F1F1" height="48" rx="2.5" ry="2.5" style="stroke:#181818;stroke-width:0.5;" width="102.5264" x="154" y="262"/><ellipse cx="169" cy="278" fill="#ADD1B2" rx="11" ry="11" style="stroke:#181818;stroke-width:1;"/><path d="M171.9688,283.6406 Q171.3906,283.9375 170.75,284.0781 Q170.1094,284.2344 169.4063,284.2344 Q166.9063,284.2344 165.5781,282.5938 Q164.2656,280.9375 164.2656,277.8125 Q164.2656,274.6875 165.5781,273.0313 Q166.9063,271.375 169.4063,271.375 Q170.1094,271.375 170.75,271.5313 Q171.4063,271.6875 171.9688,271.9844 L171.9688,274.7031 Q171.3438,274.125 170.75,273.8594 Q170.1563,273.5781 169.5313,273.5781 Q168.1875,273.5781 167.5,274.6563 Q166.8125,275.7188 166.8125,277.8125 Q166.8125,279.9063 167.5,280.9844 Q168.1875,282.0469 169.5313,282.0469 Q170.1563,282.0469 170.75,281.7813 Q171.3438,281.5 171.9688,280.9219 L171.9688,283.6406 Z " fill="#000000"/><text fill="#000000" font-family="sans-serif" font-size="14" lengthAdjust="spacing" textLength="70.5264" x="183" y="282.8467">Pepperoni</text><line style="stroke:#181818;stroke-width:0.5;" x1="155" x2="255.5264" y1="294" y2="294"/><line style="stroke:#181818;stroke-width:0.5;" x1="155" x2="255.5264" y1="302" y2="302"/></g><!--class Clams--><g class="entity" data-entity="Clams" data-source-line="64" data-uid="ent0018" id="entity_Clams"><rect fill="#F1F1F1" height="48" rx="2.5" ry="2.5" style="stroke:#181818;stroke-width:0.5;" width="75.1758" x="292" y="262"/><ellipse cx="307" cy="278" fill="#ADD1B2" rx="11" ry="11" style="stroke:#181818;stroke-width:1;"/><path d="M309.9688,283.6406 Q309.3906,283.9375 308.75,284.0781 Q308.1094,284.2344 307.4063,284.2344 Q304.9063,284.2344 303.5781,282.5938 Q302.2656,280.9375 302.2656,277.8125 Q302.2656,274.6875 303.5781,273.0313 Q304.9063,271.375 307.4063,271.375 Q308.1094,271.375 308.75,271.5313 Q309.4063,271.6875 309.9688,271.9844 L309.9688,274.7031 Q309.3438,274.125 308.75,273.8594 Q308.1563,273.5781 307.5313,273.5781 Q306.1875,273.5781 305.5,274.6563 Q304.8125,275.7188 304.8125,277.8125 Q304.8125,279.9063 305.5,280.9844 Q306.1875,282.0469 307.5313,282.0469 Q308.1563,282.0469 308.75,281.7813 Q309.3438,281.5 309.9688,280.9219 L309.9688,283.6406 Z " fill="#000000"/><text fill="#000000" font-family="sans-serif" font-size="14" lengthAdjust="spacing" textLength="43.1758" x="321" y="282.8467">Clams</text><line style="stroke:#181818;stroke-width:0.5;" x1="293" x2="366.1758" y1="294" y2="294"/><line style="stroke:#181818;stroke-width:0.5;" x1="293" x2="366.1758" y1="302" y2="302"/></g><!--class PizzaTestDrive--><g class="entity" data-entity="PizzaTestDrive" data-source-line="67" data-uid="ent0019" id="entity_PizzaTestDrive"><rect fill="#F1F1F1" height="48" rx="2.5" ry="2.5" style="stroke:#181818;stroke-width:0.5;" width="134.8809" x="7" y="420"/><ellipse cx="22" cy="436" fill="#ADD1B2" rx="11" ry="11" style="stroke:#181818;stroke-width:1;"/><path d="M24.9688,441.6406 Q24.3906,441.9375 23.75,442.0781 Q23.1094,442.2344 22.4063,442.2344 Q19.9063,442.2344 18.5781,440.5938 Q17.2656,438.9375 17.2656,435.8125 Q17.2656,432.6875 18.5781,431.0313 Q19.9063,429.375 22.4063,429.375 Q23.1094,429.375 23.75,429.5313 Q24.4063,429.6875 24.9688,429.9844 L24.9688,432.7031 Q24.3438,432.125 23.75,431.8594 Q23.1563,431.5781 22.5313,431.5781 Q21.1875,431.5781 20.5,432.6563 Q19.8125,433.7188 19.8125,435.8125 Q19.8125,437.9063 20.5,438.9844 Q21.1875,440.0469 22.5313,440.0469 Q23.1563,440.0469 23.75,439.7813 Q24.3438,439.5 24.9688,438.9219 L24.9688,441.6406 Z " fill="#000000"/><text fill="#000000" font-family="sans-serif" font-size="14" lengthAdjust="spacing" textLength="102.8809" x="36" y="440.8467">PizzaTestDrive</text><line style="stroke:#181818;stroke-width:0.5;" x1="8" x2="140.8809" y1="452" y2="452"/><line style="stroke:#181818;stroke-width:0.5;" x1="8" x2="140.8809" y1="460" y2="460"/></g><!--reverse link PizzaStore to NYPizzaStore--><g class="link" data-entity-1="PizzaStore" data-entity-2="NYPizzaStore" data-source-line="71" data-uid="lnk20" id="link_PizzaStore_NYPizzaStore"><path codeLine="71" d="M737.0303,123.1262 C683.2503,164.0862 614.8,216.22 565.51,253.76" fill="none" id="PizzaStore-backto-NYPizzaStore" style="stroke:#181818;stroke-width:1;stroke-dasharray:7.0,7.0;"/><polygon fill="none" points="751.35,112.22,733.3949,118.353,740.6657,127.8995,751.35,112.22" style="stroke:#181818;stroke-width:1;"/></g><!--reverse link PizzaStore to ChicagoPizzaStore--><g class="link" data-entity-1="PizzaStore" data-entity-2="ChicagoPizzaStore" data-source-line="72" data-uid="lnk21" id="link_PizzaStore_ChicagoPizzaStore"><path codeLine="72" d="M803.5,130.47 C803.5,171.47 803.5,216.39 803.5,253.84" fill="none" id="PizzaStore-backto-ChicagoPizzaStore" style="stroke:#181818;stroke-width:1;stroke-dasharray:7.0,7.0;"/><polygon fill="none" points="803.5,112.47,797.5,130.47,809.5,130.47,803.5,112.47" style="stroke:#181818;stroke-width:1;"/></g><!--reverse link Pizza to CheesePizza--><g class="link" data-entity-1="Pizza" data-entity-2="CheesePizza" data-source-line="73" data-uid="lnk22" id="link_Pizza_CheesePizza"><path codeLine="73" d="M1379.5057,151.095 C1350.3557,193.515 1323.97,231.92 1303.42,261.83" fill="none" id="Pizza-backto-CheesePizza" style="stroke:#181818;stroke-width:1;stroke-dasharray:7.0,7.0;"/><polygon fill="none" points="1389.7,136.26,1374.5607,147.6969,1384.4507,154.4931,1389.7,136.26" style="stroke:#181818;stroke-width:1;"/></g><!--reverse link Pizza to ClamPizza--><g class="link" data-entity-1="Pizza" data-entity-2="ClamPizza" data-source-line="74" data-uid="lnk23" id="link_Pizza_ClamPizza"><path codeLine="74" d="M1433.5,154.26 C1433.5,196.68 1433.5,231.92 1433.5,261.83" fill="none" id="Pizza-backto-ClamPizza" style="stroke:#181818;stroke-width:1;stroke-dasharray:7.0,7.0;"/><polygon fill="none" points="1433.5,136.26,1427.5,154.26,1439.5,154.26,1433.5,136.26" style="stroke:#181818;stroke-width:1;"/></g><!--reverse link Pizza to VeggiePizza--><g class="link" data-entity-1="Pizza" data-entity-2="VeggiePizza" data-source-line="75" data-uid="lnk24" id="link_Pizza_VeggiePizza"><path codeLine="75" d="M1487.1466,151.1276 C1516.0966,193.5476 1542.28,231.92 1562.69,261.83" fill="none" id="Pizza-backto-VeggiePizza" style="stroke:#181818;stroke-width:1;stroke-dasharray:7.0,7.0;"/><polygon fill="none" points="1477,136.26,1482.1907,154.5098,1492.1025,147.7454,1477,136.26" style="stroke:#181818;stroke-width:1;"/></g><!--reverse link Pizza to PepperoniPizza--><g class="link" data-entity-1="Pizza" data-entity-2="PepperoniPizza" data-source-line="76" data-uid="lnk25" id="link_Pizza_PepperoniPizza"><path codeLine="76" d="M1514.7583,121.021 C1559.2183,148.131 1603.33,176.43 1653.5,213 C1674.57,228.36 1697.23,247.19 1714.14,261.75" fill="none" id="Pizza-backto-PepperoniPizza" style="stroke:#181818;stroke-width:1;stroke-dasharray:7.0,7.0;"/><polygon fill="none" points="1499.39,111.65,1511.6346,126.1438,1517.882,115.8982,1499.39,111.65" style="stroke:#181818;stroke-width:1;"/></g><!--reverse link PizzaIngredientFactory to NYPizzaIngredientFactory--><g class="link" data-entity-1="PizzaIngredientFactory" data-entity-2="NYPizzaIngredientFactory" data-source-line="77" data-uid="lnk26" id="link_PizzaIngredientFactory_NYPizzaIngredientFactory"><path codeLine="77" d="M1003.3857,372.7608 C984.6057,394.8008 976.95,403.77 963.12,419.98" fill="none" id="PizzaIngredientFactory-backto-NYPizzaIngredientFactory" style="stroke:#181818;stroke-width:1;stroke-dasharray:7.0,7.0;"/><polygon fill="none" points="1015.06,359.06,998.8188,368.8694,1007.9527,376.6522,1015.06,359.06" style="stroke:#181818;stroke-width:1;"/></g><!--reverse link PizzaIngredientFactory to ChicagoPizzaIngredientFactory--><g class="link" data-entity-1="PizzaIngredientFactory" data-entity-2="ChicagoPizzaIngredientFactory" data-source-line="78" data-uid="lnk27" id="link_PizzaIngredientFactory_ChicagoPizzaIngredientFactory"><path codeLine="78" d="M1149.1036,372.8038 C1167.7436,394.8438 1175.3,403.77 1189.03,419.98" fill="none" id="PizzaIngredientFactory-backto-ChicagoPizzaIngredientFactory" style="stroke:#181818;stroke-width:1;stroke-dasharray:7.0,7.0;"/><polygon fill="none" points="1137.48,359.06,1144.5223,376.6783,1153.6849,368.9293,1137.48,359.06" style="stroke:#181818;stroke-width:1;"/></g><!--link PizzaStore to PizzaIngredientFactory--><g class="link" data-entity-1="PizzaStore" data-entity-2="PizzaIngredientFactory" data-source-line="79" data-uid="lnk28" id="link_PizzaStore_PizzaIngredientFactory"><path codeLine="79" d="M854.53,112.22 C890.8,140.45 935.7955,175.4743 978.9955,209.1043" fill="none" id="PizzaStore-to-PizzaIngredientFactory" style="stroke:#181818;stroke-width:1;"/><polygon fill="#181818" points="983.73,212.79,979.0853,204.1051,979.7846,209.7186,974.1711,210.4178,983.73,212.79" style="stroke:#181818;stroke-width:1;"/><text fill="#000000" font-family="sans-serif" font-size="13" lengthAdjust="spacing" textLength="29.7832" x="941.5" y="179.0669">uses</text></g><!--link Pizza to PizzaIngredientFactory--><g class="link" data-entity-1="Pizza" data-entity-2="PizzaIngredientFactory" data-source-line="80" data-uid="lnk29" id="link_Pizza_PizzaIngredientFactory"><path codeLine="80" d="M1367.67,96.17 C1324.6,112.93 1267.93,137.45 1221.5,166 C1199.31,179.65 1181.4791,192.5994 1161.0591,209.1694" fill="none" id="Pizza-to-PizzaIngredientFactory" style="stroke:#181818;stroke-width:1;"/><polygon fill="#181818" points="1156.4,212.95,1165.909,210.3851,1160.2825,209.7995,1160.8682,204.173,1156.4,212.95" style="stroke:#181818;stroke-width:1;"/><text fill="#000000" font-family="sans-serif" font-size="13" lengthAdjust="spacing" textLength="129.3398" x="1222.5" y="179.0669">uses for ingredients</text></g><!--SRC=[dLBBJW8n5DtFLpHn8SR01n3ZHcBYnX0n9iQuk9Jhq0ZjvBP31EJVdRRpQEa0YQksvzpNkJqmruQ06yPNe3MRYjqEPaOHidt6sAsY1P831sPRu9ZD30cPtunzP1LonGd1uEaOjeUwno4xP9dly_n-tEbIcIxtOIauvEe_1Q17hSiUIbYt6RPQGLW0uQ3AtYYniD0SlgCtBqr4gv_s6SoAgB7fqy4hM2VW6-QvI6EdM1H8Ieg04T8WVG57B-59veGBWT8yLk8KRSEDJ5IPB-raxjBXCoYvq-Ck7Uv7jeI_TOmVK5kgldvy1fjlvhHy-mZgLffTrUhKYHFw9FJ- -Db09p44dBQubDMKhbtthlpup-8eEyuhQZCXiQbBNhCNN84HIkgbA7GMcFJkTpIAV9-GYR5zH4EsJehWnaaX63WfX6CdPIVM6SwPi6UJpdvJg7Oul3zbt34hDTPxknp7lXGnqPBw3m00]--></g></svg>